M48
;GenerationSoftware,Autodesk,EAGLE,9.7.0*%
;CreationDate,2024-05-13T02:59:02Z*%
FMAT,2
ICI,OFF
METRIC,TZ,000.000
T6C0.350
T5C0.500
T4C0.760
T3C0.800
T2C0.813
T1C1.321
%
G90
M71
T1
X17314Y3246
X11544Y3246
X16081Y10456
X13248Y15931
X34991Y3068
X46600Y32208
X13505Y48634
T2
X29596Y55134
X27056Y55134
X16131Y54765
X13591Y54765
X43243Y55471
X40703Y55471
T3
X53344Y35331
X53344Y33331
X3296Y12442
X3296Y14942
X3296Y17442
T4
X49919Y20598
X52459Y20598
X54999Y20598
T5
X22724Y2024
X29324Y2024
T6
X35243Y26670
X39688Y25082
X34766Y23495
X55880Y55880
X3810Y55880
X55150Y3810
X3810Y3810
M30