G04 EAGLE Gerber RS-274X export*
G75*
%MOMM*%
%FSLAX34Y34*%
%LPD*%
%INTop Copper*%
%IPPOS*%
%AMOC8*
5,1,8,0,0,1.08239X$1,22.5*%
G01*
G04 Define Apertures*
%ADD10R,1.500000X1.300000*%
%ADD11R,1.300000X1.500000*%
%ADD12C,1.422400*%
%ADD13R,0.400000X1.350000*%
%ADD14R,1.600000X1.400000*%
%ADD15R,1.900000X1.900000*%
%ADD16C,1.008000*%
%ADD17P,1.42962X8X202.5*%
%ADD18R,1.200000X1.200000*%
%ADD19R,1.420200X1.031200*%
%ADD20R,1.031200X1.420200*%
%ADD21R,1.268000X1.268000*%
%ADD22C,1.268000*%
%ADD23R,1.308000X1.308000*%
%ADD24C,1.308000*%
%ADD25P,2.33688X8X22.5*%
%ADD26R,1.358900X0.279400*%
%ADD27R,0.550000X1.200000*%
%ADD28C,0.152400*%
%ADD29C,0.203200*%
%ADD30C,0.756400*%
D10*
X423730Y243070D03*
X423730Y262070D03*
X293580Y243550D03*
X293580Y262550D03*
X290020Y304680D03*
X290020Y323680D03*
D11*
X342680Y322820D03*
X361680Y322820D03*
D10*
X294810Y150810D03*
X294810Y131810D03*
X438910Y133950D03*
X438910Y152950D03*
D12*
X533440Y353310D03*
X533440Y333310D03*
D13*
X247235Y46990D03*
X253735Y46990D03*
X260235Y46990D03*
X266735Y46990D03*
X273235Y46990D03*
D14*
X228235Y44740D03*
X292235Y44740D03*
D15*
X248235Y20240D03*
X272235Y20240D03*
D16*
X227235Y15200D02*
X227235Y25280D01*
X293235Y25280D02*
X293235Y15200D01*
D17*
X295960Y551340D03*
X270560Y551340D03*
X161310Y547651D03*
X135910Y547651D03*
X432430Y554710D03*
X407030Y554710D03*
D18*
X403970Y33710D03*
X424970Y33710D03*
D19*
X519050Y110585D03*
X519050Y92195D03*
X211920Y469905D03*
X211920Y488295D03*
X415596Y472203D03*
X415596Y490593D03*
X324298Y473521D03*
X324298Y491911D03*
D20*
X314095Y431770D03*
X332485Y431770D03*
D21*
X499190Y205980D03*
D22*
X524590Y205980D03*
X549990Y205980D03*
D19*
X489254Y539435D03*
X489254Y557825D03*
D23*
X32960Y124420D03*
D24*
X32960Y149420D03*
X32960Y174420D03*
D25*
X173140Y32460D03*
X115440Y32460D03*
X160810Y104560D03*
X132476Y159310D03*
X349910Y30680D03*
X466000Y322080D03*
X135050Y486338D03*
D26*
X340706Y261790D03*
X340706Y256790D03*
X340706Y251790D03*
X340706Y246790D03*
X340706Y241790D03*
X384774Y241790D03*
X384774Y246790D03*
X384774Y251790D03*
X384774Y256790D03*
X384774Y261790D03*
D27*
X387470Y153470D03*
X377970Y153470D03*
X368470Y153470D03*
X368470Y127470D03*
X387470Y127470D03*
D28*
X339725Y261938D02*
X339725Y273050D01*
X298450Y314325D01*
X280988Y314325D01*
X279400Y312738D01*
X279400Y276225D01*
X292100Y263525D01*
X339725Y261938D02*
X340706Y261790D01*
X293580Y262550D02*
X292100Y263525D01*
X314325Y471488D02*
X322263Y471488D01*
X314325Y471488D02*
X212725Y471488D01*
X322263Y471488D02*
X323850Y473075D01*
X212725Y471488D02*
X211920Y469905D01*
X323850Y473075D02*
X324298Y473521D01*
X314325Y471488D02*
X314325Y431800D01*
X314095Y431770D01*
X325438Y473075D02*
X414338Y473075D01*
X415596Y472203D01*
X325438Y473075D02*
X324298Y473521D01*
X279400Y315913D02*
X280988Y314325D01*
X279400Y315913D02*
X279400Y396875D01*
X312738Y430213D01*
X314095Y431770D01*
X379413Y152400D02*
X379413Y149225D01*
X384175Y144463D01*
X430213Y144463D01*
X438150Y152400D01*
X379413Y152400D02*
X377970Y153470D01*
X438150Y152400D02*
X438910Y152950D01*
X438150Y247650D02*
X433388Y252413D01*
X423730Y262070D01*
X438150Y247650D02*
X438150Y153988D01*
X438910Y152950D01*
X433388Y252413D02*
X533400Y352425D01*
X533440Y353310D01*
X330200Y128588D02*
X298450Y128588D01*
X330200Y128588D02*
X368300Y128588D01*
X298450Y128588D02*
X295275Y131763D01*
X368300Y128588D02*
X368470Y127470D01*
X295275Y131763D02*
X294810Y131810D01*
X274638Y104775D02*
X274638Y47625D01*
X274638Y104775D02*
X298450Y128588D01*
X274638Y47625D02*
X273235Y46990D01*
X298450Y128588D02*
X294810Y131810D01*
X265113Y33338D02*
X174625Y33338D01*
X265113Y33338D02*
X273050Y41275D01*
X273050Y46038D01*
X174625Y33338D02*
X173140Y32460D01*
X273050Y46038D02*
X273235Y46990D01*
X133350Y73025D02*
X133350Y158750D01*
X133350Y73025D02*
X173038Y33338D01*
X133350Y158750D02*
X132476Y159310D01*
X173038Y33338D02*
X173140Y32460D01*
X377825Y153988D02*
X377825Y157163D01*
X373063Y161925D01*
X363538Y161925D01*
X330200Y128588D01*
X377970Y153470D02*
X377825Y153988D01*
X533400Y354013D02*
X415925Y471488D01*
X415596Y472203D01*
X533400Y354013D02*
X533440Y353310D01*
D29*
X387350Y157163D02*
X387350Y153988D01*
X387350Y157163D02*
X377825Y166688D01*
X311150Y166688D01*
X295275Y150813D01*
X387350Y153988D02*
X387470Y153470D01*
X295275Y150813D02*
X294810Y150810D01*
X219075Y74613D02*
X190500Y103188D01*
X219075Y74613D02*
X246063Y47625D01*
X190500Y103188D02*
X161925Y103188D01*
X246063Y47625D02*
X247235Y46990D01*
X161925Y103188D02*
X160810Y104560D01*
X219075Y74613D02*
X293688Y149225D01*
X294810Y150810D01*
D28*
X388938Y128588D02*
X433388Y128588D01*
X438150Y133350D01*
X388938Y128588D02*
X387470Y127470D01*
X438150Y133350D02*
X438910Y133950D01*
X519113Y93663D02*
X528638Y103188D01*
X528638Y117475D01*
X512763Y133350D01*
X439738Y133350D01*
X519113Y93663D02*
X519050Y92195D01*
X439738Y133350D02*
X438910Y133950D01*
X415925Y250825D02*
X396875Y250825D01*
X385763Y250825D01*
X415925Y250825D02*
X422275Y244475D01*
X385763Y250825D02*
X384774Y251790D01*
X422275Y244475D02*
X423730Y243070D01*
X347663Y257175D02*
X341313Y257175D01*
X347663Y257175D02*
X352425Y261938D01*
X352425Y266700D01*
X341313Y257175D02*
X340706Y256790D01*
X512763Y311150D02*
X512763Y133350D01*
X512763Y311150D02*
X533400Y331788D01*
X533440Y333310D01*
D30*
X352425Y266700D03*
X396875Y250825D03*
D29*
X434975Y557213D02*
X488950Y557213D01*
X434975Y557213D02*
X433388Y555625D01*
X488950Y557213D02*
X489254Y557825D01*
X433388Y555625D02*
X432430Y554710D01*
X339725Y241300D02*
X295275Y241300D01*
X293688Y242888D01*
X339725Y241300D02*
X340706Y241790D01*
X293688Y242888D02*
X293580Y243550D01*
X292100Y244475D02*
X120650Y415925D01*
X120650Y506413D01*
X160338Y546100D01*
X292100Y244475D02*
X293580Y243550D01*
X160338Y546100D02*
X161310Y547651D01*
X341313Y241300D02*
X347663Y234950D01*
X341313Y241300D02*
X340706Y241790D01*
D30*
X347663Y234950D03*
D29*
X349250Y252413D02*
X341313Y252413D01*
X349250Y252413D02*
X358775Y261938D01*
X358775Y306388D01*
X342900Y322263D01*
X341313Y252413D02*
X340706Y251790D01*
X342900Y322263D02*
X342680Y322820D01*
X377825Y246063D02*
X384175Y246063D01*
X377825Y246063D02*
X363538Y260350D01*
X363538Y320675D01*
X361950Y322263D01*
X384774Y246790D02*
X384175Y246063D01*
X361950Y322263D02*
X361680Y322820D01*
X339725Y247650D02*
X331788Y247650D01*
X290513Y288925D01*
X290513Y303213D01*
X339725Y247650D02*
X340706Y246790D01*
X290513Y303213D02*
X290020Y304680D01*
X376238Y257175D02*
X384175Y257175D01*
X376238Y257175D02*
X371475Y261938D01*
X371475Y331788D01*
X369888Y333375D01*
X300038Y333375D01*
X290513Y323850D01*
X384175Y257175D02*
X384774Y256790D01*
X290513Y323850D02*
X290020Y323680D01*
X385763Y261938D02*
X404813Y261938D01*
X454025Y311150D02*
X465138Y322263D01*
X454025Y311150D02*
X404813Y261938D01*
X385763Y261938D02*
X384774Y261790D01*
X465138Y322263D02*
X466000Y322080D01*
X452438Y311150D02*
X333375Y430213D01*
X452438Y311150D02*
X454025Y311150D01*
X333375Y430213D02*
X332485Y431770D01*
X490538Y411163D02*
X490538Y538163D01*
X490538Y411163D02*
X544513Y357188D01*
X544513Y225425D01*
X525463Y206375D01*
X490538Y538163D02*
X489254Y539435D01*
X525463Y206375D02*
X524590Y205980D01*
X323850Y492125D02*
X323850Y498475D01*
X271463Y550863D01*
X323850Y492125D02*
X324298Y491911D01*
X271463Y550863D02*
X270560Y551340D01*
X211138Y487363D02*
X136525Y487363D01*
X211138Y487363D02*
X211920Y488295D01*
X136525Y487363D02*
X135050Y486338D01*
X414338Y492125D02*
X414338Y547688D01*
X407988Y554038D01*
X414338Y492125D02*
X415596Y490593D01*
X407988Y554038D02*
X407030Y554710D01*
X425450Y34925D02*
X442913Y34925D01*
X517525Y109538D01*
X425450Y34925D02*
X424970Y33710D01*
X517525Y109538D02*
X519050Y110585D01*
X403225Y98425D02*
X403225Y34925D01*
X403225Y98425D02*
X374650Y127000D01*
X374650Y142875D01*
X369888Y147638D01*
X369888Y152400D01*
X403225Y34925D02*
X403970Y33710D01*
X369888Y152400D02*
X368470Y153470D01*
X363538Y241300D02*
X384175Y241300D01*
X363538Y241300D02*
X295275Y173038D01*
X55563Y173038D01*
X33338Y150813D01*
X384175Y241300D02*
X384774Y241790D01*
X33338Y150813D02*
X32960Y149420D01*
M02*
