G04 EAGLE Gerber RS-274X export*
G75*
%MOMM*%
%FSLAX34Y34*%
%LPD*%
%INBottom Copper*%
%IPPOS*%
%AMOC8*
5,1,8,0,0,1.08239X$1,22.5*%
G01*
G04 Define Apertures*
%ADD10C,1.422400*%
%ADD11C,1.008000*%
%ADD12P,1.42962X8X202.5*%
%ADD13R,1.268000X1.268000*%
%ADD14C,1.268000*%
%ADD15R,1.308000X1.308000*%
%ADD16C,1.308000*%
%ADD17P,2.33688X8X22.5*%
%ADD18C,0.152400*%
%ADD19C,0.756400*%
%ADD20C,0.203200*%
D10*
X533440Y353310D03*
X533440Y333310D03*
D11*
X227235Y25280D02*
X227235Y15200D01*
X293235Y15200D02*
X293235Y25280D01*
D12*
X295960Y551340D03*
X270560Y551340D03*
X161310Y547651D03*
X135910Y547651D03*
X432430Y554710D03*
X407030Y554710D03*
D13*
X499190Y205980D03*
D14*
X524590Y205980D03*
X549990Y205980D03*
D15*
X32960Y124420D03*
D16*
X32960Y149420D03*
X32960Y174420D03*
D17*
X173140Y32460D03*
X115440Y32460D03*
X160810Y104560D03*
X132476Y159310D03*
X349910Y30680D03*
X466000Y322080D03*
X135050Y486338D03*
D18*
X131763Y173038D02*
X33338Y173038D01*
X131763Y173038D02*
X131763Y160338D01*
X33338Y173038D02*
X32960Y174420D01*
X131763Y160338D02*
X132476Y159310D01*
X96838Y60325D02*
X114300Y42863D01*
X96838Y60325D02*
X33338Y123825D01*
X114300Y42863D02*
X114300Y33338D01*
X33338Y123825D02*
X32960Y124420D01*
X114300Y33338D02*
X115440Y32460D01*
X366713Y280988D02*
X422275Y336550D01*
X366713Y280988D02*
X352425Y266700D01*
X422275Y336550D02*
X533400Y336550D01*
X533400Y333375D01*
X533440Y333310D01*
X396875Y250825D02*
X366713Y280988D01*
X303213Y266700D02*
X96838Y60325D01*
X303213Y266700D02*
X352425Y266700D01*
D19*
X352425Y266700D03*
X396875Y250825D03*
D20*
X261938Y546100D02*
X161925Y546100D01*
X261938Y546100D02*
X266700Y541338D01*
X295275Y541338D01*
X295275Y550863D01*
X161925Y546100D02*
X161310Y547651D01*
X295275Y550863D02*
X295960Y551340D01*
X417513Y539750D02*
X431800Y554038D01*
X417513Y539750D02*
X295275Y539750D01*
X295275Y541338D01*
X431800Y554038D02*
X432430Y554710D01*
X347663Y33338D02*
X349250Y31750D01*
X347663Y33338D02*
X347663Y234950D01*
X349250Y31750D02*
X349910Y30680D01*
D19*
X347663Y234950D03*
D20*
X466725Y238125D02*
X498475Y206375D01*
X466725Y238125D02*
X466725Y320675D01*
X498475Y206375D02*
X499190Y205980D01*
X466725Y320675D02*
X466000Y322080D01*
X136525Y487363D02*
X136525Y546100D01*
X135910Y547651D01*
X136525Y487363D02*
X135050Y486338D01*
M02*
